<svg width="200" height="283" viewBox="0 0 200 283" fill="none" xmlns="http://www.w3.org/2000/svg">
<path d="M195.653 274.731H126.062C159.895 263.637 184.348 231.691 184.348 193.966C184.348 147.056 146.53 0 99.8462 0C53.1627 0 15.3714 147.056 15.3714 193.994C15.3714 231.718 39.8246 263.665 73.6579 274.759H4.0665C1.81637 274.759 0 276.585 0 278.847C0 281.11 1.81637 282.936 4.0665 282.936H195.653C197.903 282.936 199.719 281.11 199.719 278.847C199.719 276.585 197.903 274.759 195.653 274.759V274.731ZM71.8144 199.772C70.3776 198.028 70.5945 195.466 72.3295 194.021C74.0645 192.576 76.6129 192.822 78.0497 194.539L95.7797 215.882V152.644C95.7797 150.381 97.596 148.555 99.8462 148.555C102.096 148.555 103.913 150.381 103.913 152.644V174.859L114.079 158.64C115.272 156.732 117.793 156.16 119.691 157.359C121.588 158.559 122.158 161.094 120.965 163.002L103.913 190.178V247.61L125.33 224.359C126.848 222.696 129.423 222.614 131.077 224.141C132.731 225.667 132.812 228.257 131.294 229.919L103.913 259.63V274.731H95.7797V228.611L71.8144 199.772Z" fill="#143A37"/>
</svg>
