<svg width="49" height="50" viewBox="0 0 49 50" fill="none" xmlns="http://www.w3.org/2000/svg">
<path d="M45.9184 3.95947H3.23779V46.64H45.9184V3.95947Z" fill="#B2A9D1"/>
<path d="M46.5284 47.2496H2.62842V3.34961H46.5284V47.2496ZM3.84786 46.0302H45.309V4.56905H3.84786V46.0302Z" fill="#8B75A1"/>
<path d="M24.5846 25.2996C26.605 25.2996 28.2429 23.6617 28.2429 21.6412C28.2429 19.6208 26.605 17.9829 24.5846 17.9829C22.5642 17.9829 20.9263 19.6208 20.9263 21.6412C20.9263 23.6617 22.5642 25.2996 24.5846 25.2996Z" fill="white"/>
<path d="M17.2675 22.8608C17.2675 18.8256 20.549 15.5441 24.5842 15.5441C28.6193 15.5441 31.9008 18.8256 31.9008 22.8608C31.9008 24.8253 31.118 26.6081 29.8534 27.9239C30.3765 28.6141 30.7582 29.3885 30.9789 30.2104C33.0337 28.4202 34.3397 25.7923 34.3397 22.8608C34.3397 17.4818 29.9631 13.1052 24.5842 13.1052C19.2052 13.1052 14.8286 17.4818 14.8286 22.8608C14.8286 25.7923 16.1346 28.4202 18.1894 30.2104C18.4089 29.3885 18.7906 28.6141 19.3149 27.9239C18.0504 26.6081 17.2675 24.8253 17.2675 22.8608Z" fill="white"/>
<path d="M24.5845 8.22754C16.5154 8.22754 9.95117 14.7918 9.95117 22.8609C9.95117 28.7715 13.4802 33.8627 18.5373 36.1699L18.0727 33.153C14.6631 30.9885 12.3901 27.1887 12.3901 22.8609C12.3901 16.1369 17.8605 10.6664 24.5845 10.6664C31.3085 10.6664 36.7789 16.1369 36.7789 22.8609C36.7789 27.1899 34.5047 30.9885 31.0963 33.153L30.6317 36.1699C35.6875 33.8627 39.2178 28.7715 39.2178 22.8609C39.2178 14.7918 32.6536 8.22754 24.5845 8.22754Z" fill="white"/>
<path d="M24.5856 42.3719H24.5832C23.1808 42.3719 21.9882 41.4268 21.7748 40.1476L20.4481 32.1858C20.0578 29.8482 22.0187 27.7385 24.582 27.7385H24.5869C27.1501 27.7385 29.111 29.8482 28.7208 32.1871L27.394 40.1488C27.1806 41.4268 25.988 42.3719 24.5856 42.3719Z" fill="white"/>
</svg>
