<svg width="50" height="50" viewBox="0 0 50 50" fill="none" xmlns="http://www.w3.org/2000/svg">
<path d="M44.9792 25.2997C44.9792 36.5236 35.8791 45.6237 24.6551 45.6237C13.4312 45.6237 4.33105 36.5236 4.33105 25.2997C4.33105 14.0757 13.4312 4.97559 24.6551 4.97559C35.8791 4.97559 44.9792 14.0757 44.9792 25.2997Z" fill="url(#paint0_linear_346_475)"/>
<path d="M24.656 38.5104C17.3718 38.5104 11.4453 32.5839 11.4453 25.2998C11.4453 18.0156 17.3718 12.0891 24.656 12.0891C31.9401 12.0891 37.8666 18.0156 37.8666 25.2998C37.8666 32.5839 31.9401 38.5104 24.656 38.5104ZM24.656 13.1053C17.9317 13.1053 12.4615 18.5755 12.4615 25.2998C12.4615 32.024 17.9317 37.4942 24.656 37.4942C31.3802 37.4942 36.8504 32.024 36.8504 25.2998C36.8504 18.5755 31.3802 13.1053 24.656 13.1053Z" fill="white"/>
<path d="M20.5908 19.2024V31.3968L30.7529 25.2996L20.5908 19.2024Z" fill="white"/>
<defs>
<linearGradient id="paint0_linear_346_475" x1="14.5957" y1="7.87583" x2="35.3161" y2="43.7651" gradientUnits="userSpaceOnUse">
<stop stop-color="#EA504D"/>
<stop offset="0.736" stop-color="#E83E3B"/>
<stop offset="1" stop-color="#E73634"/>
</linearGradient>
</defs>
</svg>
