<svg width="49" height="50" viewBox="0 0 49 50" fill="none" xmlns="http://www.w3.org/2000/svg">
<path d="M11.406 34.4456H3.27637V39.5266H11.406V34.4456Z" fill="#F98613"/>
<path d="M22.5842 18.1863H14.4546V23.2673H22.5842V18.1863Z" fill="#F1BC18"/>
<path d="M22.5842 26.3159H14.4546V31.3969H22.5842V26.3159Z" fill="#ED6630"/>
<path d="M22.5842 34.4456H14.4546V39.5266H22.5842V34.4456Z" fill="#D64D45"/>
<path d="M33.7624 26.3159H25.6328V31.3969H33.7624V26.3159Z" fill="#BD3369"/>
<path d="M33.7624 34.4456H25.6328V39.5266H33.7624V34.4456Z" fill="#6D2F87"/>
<path d="M44.9407 10.0566H36.811V15.1377H44.9407V10.0566Z" fill="#19AA5C"/>
<path d="M44.9407 18.1863H36.811V23.2673H44.9407V18.1863Z" fill="#129B8A"/>
<path d="M44.9407 26.3159H36.811V31.3969H44.9407V26.3159Z" fill="#1084B6"/>
<path d="M44.9407 34.4456H36.811V39.5266H44.9407V34.4456Z" fill="#1168CF"/>
</svg>
