<svg width="50" height="50" viewBox="0 0 50 50" fill="none" xmlns="http://www.w3.org/2000/svg">
<path fill-rule="evenodd" clip-rule="evenodd" d="M42.9281 16.1539C42.9281 11.1064 38.8297 7.00806 33.7822 7.00806H15.4906C10.4431 7.00806 6.34473 11.1064 6.34473 16.1539V34.4456C6.34473 39.493 10.4431 43.5914 15.4906 43.5914H33.7822C38.8297 43.5914 42.9281 39.493 42.9281 34.4456V16.1539Z" fill="#3CD0D9"/>
<path d="M36.8125 29.3645C35.8613 29.3645 34.7313 29.6013 33.899 30.1947C33.6612 30.3726 33.6612 30.6094 33.959 30.6094C34.9101 30.4905 37.0513 30.1947 37.4669 30.7282C37.8236 31.2028 37.0503 33.219 36.6936 34.1671C36.5747 34.4638 36.8125 34.5228 37.0503 34.3449C38.6559 32.9812 39.0715 30.1937 38.7748 29.8381C38.5959 29.5423 37.7636 29.3645 36.8125 29.3645Z" fill="white"/>
<path d="M10.5613 30.1773C12.4007 31.3286 14.2603 32.4282 16.2125 33.2584C18.1575 34.0866 20.198 34.6791 22.2487 34.6872C24.337 34.7431 26.4578 34.4565 28.5156 33.9881C30.5806 33.5125 32.5926 32.796 34.5692 31.9577C34.8273 31.8469 35.1271 31.9678 35.2368 32.226C35.3384 32.4648 35.2429 32.7391 35.0234 32.8672C33.1058 33.9738 31.0318 34.8315 28.8713 35.4128C26.7048 35.994 24.4671 36.2481 22.202 36.2115C19.8891 36.0906 17.6748 35.3863 15.6932 34.361C13.7065 33.3306 11.9027 32.0339 10.2555 30.5838C10.1498 30.4903 10.1396 30.3297 10.2321 30.224C10.3175 30.1295 10.4577 30.1122 10.5613 30.1773Z" fill="white"/>
<path d="M23.1118 27.3321H22.7013C21.5265 27.3321 20.5713 26.3769 20.5713 25.2021V21.2349H21.5875V25.2021C21.5875 25.8159 22.0875 26.3159 22.7013 26.3159H23.1118C23.7246 26.3159 24.6361 25.4043 24.6361 24.7916V23.7754H25.6523V24.7916C25.6523 25.9785 24.2987 27.3321 23.1118 27.3321Z" fill="white"/>
<path d="M12.441 21.2349H11.4248V27.3321H12.441V21.2349Z" fill="white"/>
<path d="M11.8231 23.4806C11.8018 22.9858 11.9725 22.5752 12.2011 22.2033C12.32 22.0173 12.4511 21.8395 12.6361 21.6718C12.8413 21.498 13.0771 21.3842 13.3189 21.307C14.3189 21.0103 15.3625 21.6169 15.7964 22.5224C16.0231 22.9807 16.0017 23.5325 15.9987 23.8678V27.3321H14.9825V23.8678C14.9845 23.44 14.9906 23.1931 14.8727 22.9471C14.6603 22.4411 14.0333 22.2165 13.5161 22.2317C13.0629 22.2124 12.4562 22.9329 12.3302 23.4806H11.8231Z" fill="white"/>
<path d="M15.2362 23.4806C15.2148 22.9858 15.3856 22.5752 15.6142 22.2033C15.7331 22.0173 15.8642 21.8395 16.0491 21.6718C16.2544 21.498 16.4902 21.3842 16.732 21.307C17.732 21.0103 18.7756 21.6169 19.2095 22.5224C19.4361 22.9807 19.4148 23.5325 19.4118 23.8678V27.3321H18.3956V23.8678C18.3976 23.44 18.4037 23.1931 18.2858 22.9471C18.0734 22.4411 17.4464 22.2165 16.9292 22.2317C16.4759 22.2124 15.8693 22.9329 15.7433 23.4806H15.2362Z" fill="white"/>
<path d="M25.6519 21.2349H24.6357V27.3321H25.6519V21.2349Z" fill="white"/>
<path d="M32.7652 21.2349H31.749V27.3321H32.7652V21.2349Z" fill="white"/>
<path d="M32.2574 20.2187C32.8186 20.2187 33.2736 19.7637 33.2736 19.2025C33.2736 18.6412 32.8186 18.1863 32.2574 18.1863C31.6962 18.1863 31.2412 18.6412 31.2412 19.2025C31.2412 19.7637 31.6962 20.2187 32.2574 20.2187Z" fill="white"/>
<path d="M34.7984 23.8973V24.6696C34.7984 25.5741 35.5403 26.3159 36.4447 26.3159C36.8816 26.3159 37.2983 26.1431 37.6133 25.8383L37.847 25.6045V26.9256C37.4304 27.1898 36.9528 27.3321 36.4447 27.3321C34.9813 27.3321 33.7822 26.133 33.7822 24.6696V23.8973C33.7822 22.434 34.9813 21.2349 36.4447 21.2349C36.9528 21.2349 37.4304 21.3771 37.847 21.6413V22.9624L37.6133 22.7287C37.2983 22.4238 36.8816 22.2511 36.4447 22.2511C35.5403 22.2511 34.7984 22.9929 34.7984 23.8973Z" fill="white"/>
<path d="M27.9331 22.2054C27.8315 22.2765 27.6842 22.4848 27.6842 22.7592C27.6842 23.3486 28.0094 23.5214 28.863 23.8059C29.6556 24.0599 30.7328 24.4258 30.7328 25.8078C30.7328 26.3362 30.5295 26.7732 30.1332 27.0781C29.6353 27.4642 28.8833 27.5862 28.1618 27.5862C27.613 27.5862 27.0643 27.515 26.668 27.4439V26.4074C27.6232 26.6005 28.9849 26.6919 29.5032 26.2753C29.6048 26.2041 29.7166 26.0822 29.7166 25.8078C29.7166 25.2184 29.3914 25.0457 28.5378 24.7611C27.7451 24.5071 26.668 24.1412 26.668 22.7592C26.668 22.2308 26.8712 21.7938 27.2675 21.4889C28.1516 20.7979 29.6119 20.9819 30.5123 21.3223V22.3588C29.5713 21.8162 28.4514 21.7887 27.9331 22.2054Z" fill="white"/>
</svg>
