<svg width="36" height="36" viewBox="0 0 36 36" fill="none" xmlns="http://www.w3.org/2000/svg">
<g clip-path="url(#clip0_350_649)">
<path fill-rule="evenodd" clip-rule="evenodd" d="M4.89663 0.334045H30.6049C33.264 0.334045 35.4195 2.48957 35.4195 5.14767V30.856C35.4195 33.5151 33.264 35.6706 30.6059 35.6706H4.89663C2.23854 35.6706 0.0830078 33.5151 0.0830078 30.857V5.14767C0.0830078 2.48957 2.23854 0.334045 4.89663 0.334045Z" fill="#212121"/>
<path fill-rule="evenodd" clip-rule="evenodd" d="M22.8635 14.6718C24.4105 15.7771 26.3059 16.4269 28.3524 16.4269V12.4898C27.9647 12.4898 27.579 12.4495 27.2001 12.369V15.4679C25.1535 15.4679 23.2591 14.8171 21.7111 13.7128V21.746C21.7111 25.7645 18.4513 29.0224 14.4308 29.0224C12.931 29.0224 11.5362 28.5689 10.3779 27.7915C11.7001 29.1421 13.5435 29.9804 15.5832 29.9804C19.6037 29.9804 22.8635 26.7225 22.8635 22.704V14.6718ZM24.2858 10.7004C23.4956 9.83757 22.9764 8.72153 22.8635 7.48769V6.9812H21.771C22.0459 8.54877 22.9842 9.88861 24.2858 10.7004ZM12.9212 24.7084C12.4795 24.1292 12.2409 23.4215 12.2419 22.6932C12.2419 20.8547 13.7329 19.3647 15.5724 19.3647C15.915 19.3647 16.2556 19.4167 16.5824 19.5208V15.4963C16.2006 15.4443 15.8158 15.4217 15.4301 15.4296V18.5618C15.1032 18.4577 14.7626 18.4057 14.4191 18.4057C12.5796 18.4057 11.0886 19.8957 11.0886 21.7342C11.0896 23.0348 11.8346 24.1606 12.9212 24.7084Z" fill="#EC407A"/>
<path fill-rule="evenodd" clip-rule="evenodd" d="M21.711 13.7128C23.2579 14.8181 25.1533 15.4679 27.1999 15.4679V12.369C26.0574 12.1256 25.0464 11.5288 24.2856 10.6994C22.9841 9.88763 22.0467 8.54877 21.7718 6.9812H18.9027V22.704C18.8958 24.5366 17.4078 26.0207 15.5722 26.0207C14.4905 26.0207 13.5296 25.5054 12.921 24.7074C11.8344 24.1597 11.0894 23.0338 11.0894 21.7342C11.0894 19.8957 12.5804 18.4057 14.4199 18.4057C14.7723 18.4057 15.1119 18.4607 15.4309 18.5618V15.4306C11.481 15.512 8.30469 18.7375 8.30469 22.705C8.30469 24.6858 9.09583 26.4811 10.3797 27.7925C11.538 28.5699 12.9328 29.0233 14.4326 29.0233C18.4531 29.0233 21.7129 25.7655 21.7129 21.747L21.711 13.7128Z" fill="white"/>
<path fill-rule="evenodd" clip-rule="evenodd" d="M27.1999 12.37V11.5318C26.1693 11.5337 25.1602 11.2452 24.2857 10.6994C25.0591 11.5465 26.078 12.1305 27.1999 12.37ZM21.7709 6.98121C21.7444 6.83103 21.7247 6.68085 21.711 6.52871V6.02222H17.7494V21.746C17.7435 23.5786 16.2545 25.0627 14.4189 25.0627C13.88 25.0627 13.3716 24.9351 12.921 24.7074C13.5296 25.5054 14.4906 26.0207 15.5723 26.0207C17.4078 26.0207 18.8959 24.5366 18.9027 22.704V6.98121H21.7709ZM15.4299 15.4306V14.5383C15.0991 14.4932 14.7654 14.4706 14.4307 14.4706C10.4092 14.4706 7.15039 17.7284 7.15039 21.747C7.15039 24.2667 8.43134 26.487 10.3778 27.7925C9.0939 26.4811 8.30275 24.6858 8.30275 22.705C8.30275 18.7375 11.4801 15.512 15.4299 15.4306Z" fill="#81D4FA"/>
</g>
<defs>
<clipPath id="clip0_350_649">
<rect width="35" height="35" fill="white" transform="translate(0.394043 0.500977)"/>
</clipPath>
</defs>
</svg>
