<svg width="36" height="36" viewBox="0 0 36 36" fill="none" xmlns="http://www.w3.org/2000/svg">
<path d="M25.4232 31.2371L10.7071 31.2511C7.46955 31.2541 4.81844 28.6081 4.81476 25.3706L4.80078 10.6545C4.79784 7.41693 7.44379 4.76583 10.6813 4.76215L25.3974 4.74817C28.635 4.74523 31.2861 7.39118 31.2897 10.6287L31.3037 25.3448C31.3074 28.5831 28.6607 31.2342 25.4232 31.2371Z" fill="url(#paint0_radial_261_582)"/>
<path d="M25.4232 31.2371L10.7071 31.2511C7.46955 31.2541 4.81844 28.6081 4.81476 25.3706L4.80078 10.6545C4.79784 7.41693 7.44379 4.76583 10.6813 4.76215L25.3974 4.74817C28.635 4.74523 31.2861 7.39118 31.2897 10.6287L31.3037 25.3448C31.3074 28.5831 28.6607 31.2342 25.4232 31.2371Z" fill="url(#paint1_radial_261_582)"/>
<path d="M18.0525 23.1506C15.213 23.1506 12.9019 20.8402 12.9019 18C12.9019 15.1598 15.213 12.8494 18.0525 12.8494C20.892 12.8494 23.2031 15.1598 23.2031 18C23.2031 20.8402 20.892 23.1506 18.0525 23.1506ZM18.0525 14.321C16.0239 14.321 14.3735 15.9714 14.3735 18C14.3735 20.0286 16.0239 21.679 18.0525 21.679C20.0811 21.679 21.7315 20.0286 21.7315 18C21.7315 15.9714 20.0811 14.321 18.0525 14.321Z" fill="white"/>
<path d="M23.571 13.5852C24.1806 13.5852 24.6747 13.0911 24.6747 12.4815C24.6747 11.872 24.1806 11.3778 23.571 11.3778C22.9614 11.3778 22.4673 11.872 22.4673 12.4815C22.4673 13.0911 22.9614 13.5852 23.571 13.5852Z" fill="white"/>
<path d="M22.4676 27.5655H13.6379C10.7985 27.5655 8.4873 25.2551 8.4873 22.4149V13.5853C8.4873 10.7451 10.7985 8.43463 13.6379 8.43463H22.4676C25.3071 8.43463 27.6182 10.7451 27.6182 13.5853V22.4149C27.6182 25.2551 25.3071 27.5655 22.4676 27.5655ZM13.6379 9.90624C11.6093 9.90624 9.95891 11.5566 9.95891 13.5853V22.4149C9.95891 24.4435 11.6093 26.0939 13.6379 26.0939H22.4676C24.4962 26.0939 26.1466 24.4435 26.1466 22.4149V13.5853C26.1466 11.5566 24.4962 9.90624 22.4676 9.90624H13.6379Z" fill="white"/>
<defs>
<radialGradient id="paint0_radial_261_582" cx="0" cy="0" r="1" gradientUnits="userSpaceOnUse" gradientTransform="translate(14.6532 31.2702) scale(33.0369)">
<stop stop-color="#FFDD55"/>
<stop offset="0.328" stop-color="#FF543F"/>
<stop offset="0.348" stop-color="#FC5245"/>
<stop offset="0.504" stop-color="#E64771"/>
<stop offset="0.643" stop-color="#D53E91"/>
<stop offset="0.761" stop-color="#CC39A4"/>
<stop offset="0.841" stop-color="#C837AB"/>
</radialGradient>
<radialGradient id="paint1_radial_261_582" cx="0" cy="0" r="1" gradientUnits="userSpaceOnUse" gradientTransform="translate(9.06551 4.41728) scale(21.9365 14.6163)">
<stop stop-color="#4168C9"/>
<stop offset="0.999" stop-color="#4168C9" stop-opacity="0"/>
</radialGradient>
</defs>
</svg>
