<svg width="36" height="36" viewBox="0 0 36 36" fill="none" xmlns="http://www.w3.org/2000/svg">
<path d="M18.052 3.60248C9.92433 3.60248 3.33594 10.1909 3.33594 18.3186C3.33594 26.4463 9.92433 33.0347 18.052 33.0347C26.1797 33.0347 32.7681 26.4463 32.7681 18.3186C32.7681 10.1909 26.1797 3.60248 18.052 3.60248Z" fill="url(#paint0_linear_261_611)"/>
<path d="M20.0436 22.2191H23.8521L24.4503 18.3503H20.0436V16.2356C20.0436 14.6286 20.5689 13.2033 22.0722 13.2033H24.4878V9.82744C24.0633 9.77005 23.1656 9.64496 21.4696 9.64496C17.9274 9.64496 15.851 11.5154 15.851 15.7772V18.351H12.2095V22.2199H15.8502V32.8537C16.5713 32.9611 17.302 33.0347 18.0518 33.0347C18.7294 33.0347 19.3909 32.9729 20.0436 32.8846V22.2191Z" fill="white"/>
<defs>
<linearGradient id="paint0_linear_261_611" x1="7.74561" y1="8.01215" x2="30.2774" y2="30.544" gradientUnits="userSpaceOnUse">
<stop stop-color="#2AA4F4"/>
<stop offset="1" stop-color="#007AD9"/>
</linearGradient>
</defs>
</svg>
