<svg width="36" height="36" viewBox="0 0 36 36" fill="none" xmlns="http://www.w3.org/2000/svg">
<path d="M31.1141 19.4201L24.8932 26.5563C24.7534 26.7167 24.5511 26.8087 24.3384 26.8087H19.7951C19.6193 26.8087 19.4493 26.8712 19.3161 26.986L14.5793 31.0466C14.4461 31.1607 14.2762 31.2232 14.1003 31.2232H12.901C12.4949 31.2232 12.1652 30.8936 12.1652 30.4875V27.5444C12.1652 27.1383 11.8356 26.8087 11.4295 26.8087H5.54338C5.13724 26.8087 4.80762 26.479 4.80762 26.0729V10.5799C4.80762 10.4651 4.8341 10.3526 4.88561 10.2503L7.81468 4.40614C7.93976 4.15745 8.19433 4 8.47245 4H30.5593C30.9655 4 31.2951 4.32962 31.2951 4.73576V18.9367C31.2951 19.1148 31.2311 19.2862 31.1141 19.4201Z" fill="#8343C8"/>
<path d="M29.0883 18.2509C27.8617 19.6319 26.636 21.013 25.4094 22.394C23.6929 22.394 21.9756 22.394 20.2591 22.394C18.5426 23.8655 16.8253 25.3371 15.1088 26.8086C15.1088 25.3371 15.1088 23.8655 15.1088 22.394C13.1465 22.3881 11.1849 22.3822 9.22266 22.3763C9.22266 16.9861 9.22266 11.5967 9.22266 6.20721C15.8445 6.20721 22.4664 6.20721 29.0883 6.20721C29.0883 10.2215 29.0883 14.2359 29.0883 18.2509Z" fill="#FAFAFA"/>
<path d="M18.052 10.6218H15.8447V17.9795H18.052V10.6218Z" fill="#8343C8"/>
<path d="M24.6731 10.6218H22.4658V17.9795H24.6731V10.6218Z" fill="#8343C8"/>
</svg>
